<svg xmlns="http://www.w3.org/2000/svg" width="40" height="40" viewBox="0 0 40 40">
  <path fill="#272e35" d="M19.999.167C30.953.167 39.833 9.046 39.833 20s-8.88 19.833-19.833 19.833H20l-.346-.003C8.86 39.646.166 30.838.166 20 .166 9.046 9.046.167 19.999.167zM21.5 3.232v5.101a1.5 1.5 0 0 1-2.993.144l-.007-.144-.001-5.101A16.84 16.84 0 0 0 3.232 18.5h5.101a1.5 1.5 0 0 1 .144 2.993l-.144.007H3.232a16.84 16.84 0 0 0 15.267 15.267l.001-5.101a1.5 1.5 0 0 1 2.993-.144l.007.144v5.101A16.84 16.84 0 0 0 36.767 21.5h-5.101a1.5 1.5 0 0 1-.144-2.993l.144-.007h5.101A16.84 16.84 0 0 0 21.5 3.232zm-7.006 5.819l.086.116 6.221 9.332h5.864a1.5 1.5 0 0 1 1.493 1.356l.007.144a1.5 1.5 0 0 1-1.356 1.493l-.144.007h-6.667a1.5 1.5 0 0 1-1.159-.548l-.089-.12-6.667-10a1.5 1.5 0 0 1 2.41-1.78z"></path>
</svg>