<svg width="56" height="56" viewBox="0 0 56 56" fill="none" xmlns="http://www.w3.org/2000/svg">
<path d="M27.9991 54.8801C42.8446 54.8801 54.8791 42.8455 54.8791 28.0001C54.8791 13.1547 42.8446 1.12012 27.9991 1.12012C13.1537 1.12012 1.11914 13.1547 1.11914 28.0001C1.11914 42.8455 13.1537 54.8801 27.9991 54.8801Z" fill="#EA4C89"/>
<path fill-rule="evenodd" clip-rule="evenodd" d="M28 0C12.5423 0 0 12.5423 0 28C0 43.4577 12.5423 56 28 56C43.4274 56 56 43.4577 56 28C56 12.5423 43.4274 0 28 0ZM46.4946 12.9069C49.9413 17.1051 51.8487 22.3557 51.9002 27.7872C51.1106 27.636 43.2146 26.026 35.2582 27.0284C35.0762 26.6336 34.9238 26.208 34.7418 25.783C34.2464 24.6151 33.7198 23.4607 33.1626 22.321C41.9698 18.737 45.9782 13.575 46.4946 12.9069ZM28 4.13C34.0738 4.13 39.6312 6.40808 43.8525 10.1433C43.4269 10.7503 39.8132 15.5792 31.3102 18.7678C27.3924 11.5707 23.0502 5.67896 22.3815 4.76784C24.1735 4.34224 26.0562 4.13 28 4.13ZM17.8265 6.37728C18.4643 7.22792 22.7158 13.1499 26.6941 20.1953C15.5187 23.1711 5.64872 23.1106 4.58528 23.1106C6.13424 15.7007 11.1451 9.53624 17.8265 6.37784V6.37728ZM4.06952 28.0302V27.3017C5.10216 27.3319 16.7031 27.4837 28.6378 23.9002C29.3362 25.2364 29.974 26.6028 30.581 27.9698C30.2775 28.061 29.9438 28.1518 29.6402 28.243C17.3096 32.2213 10.7498 43.0931 10.2032 44.0042C6.40808 39.783 4.06952 34.1656 4.06952 28.0302ZM28 51.931C22.6842 51.9394 17.5193 50.1641 13.3319 46.8894C13.7575 46.0085 18.6161 36.6554 32.0998 31.948C32.1602 31.9178 32.191 31.9178 32.2515 31.887C35.6227 40.6028 36.9891 47.922 37.3531 50.0175C34.4686 51.2624 31.3107 51.9305 28 51.9305V51.931ZM41.3319 47.8307C41.0889 46.373 39.8132 39.3882 36.6856 30.7938C44.1868 29.6094 50.7461 31.5532 51.5659 31.8265C50.5338 38.477 46.7074 44.217 41.3319 47.8313V47.8307Z" fill="#C32361"/>
</svg>
