<svg xmlns="http://www.w3.org/2000/svg" width="39" height="37" viewBox="0 0 39 37">
  <path fill="#272e35"
    d="M8.097.054l.068.002.03.002.025.002.106.013.045.008.092.02.034.01.1.031.028.011.097.04.034.017.078.041c.339.193.574.498.685.842l.005.02 2.063 6.698a1.5 1.5 0 0 1-2.818 1.019l-.049-.136-.953-3.093C6.154 9.433 5.289 13.62 5.289 17.844a31.01 31.01 0 0 0 4.572 16.26 1.5 1.5 0 1 1-2.558 1.567 34.01 34.01 0 0 1-5.014-17.828c0-4.773 1.007-9.499 2.882-13.803L1.949 5.053a1.5 1.5 0 0 1-1.83-.846l-.05-.136a1.5 1.5 0 0 1 .846-1.83l.136-.05L7.708.104A1.51 1.51 0 0 1 7.767.09l-.126.033c.07-.022.14-.038.21-.05l.052-.007c.026-.004.051-.006.077-.008l.066-.003a1.1 1.1 0 0 1 .051-.001zm26.895 10.846l.183.155 3.155 2.806a1.5 1.5 0 0 1-1.874 2.338l-.12-.096-3.155-2.806c-.71-.631-1.775-.611-2.46.021l-.117.118-6.342 6.999a1.5 1.5 0 0 1-1.756.347l-.125-.067-7.868-4.704a1 1 0 0 0-1.123 1.651l.097.066 15.021 8.98a1.5 1.5 0 0 1-1.412 2.643l-.128-.068-3.005-1.797-.941 1.575c-.038.063-.029.141.017.194l.041.034 5.722 3.421c.345.206.739.299 1.391.29l.32-.011.361-.025.406-.039.704-.084.99-.129c2.218-.27 3.687-.158 5.119.699a1.5 1.5 0 0 1-1.412 2.643l-.128-.068c-.662-.396-1.497-.481-2.924-.329l-.831.103-.478.064-.609.074c-2.035.231-3.093.148-4.279-.513l-.17-.098-5.722-3.421c-1.448-.865-1.954-2.704-1.184-4.18l.091-.162.94-1.574-9.441-5.644a4 4 0 0 1-1.485-5.301l.104-.185a4 4 0 0 1 5.301-1.485l.185.104 6.812 4.072 5.516-6.087c1.727-1.906 4.63-2.117 6.611-.521z"></path>
</svg>