<svg xmlns="http://www.w3.org/2000/svg" width="40" height="34" viewBox="0 0 40 34">
  <path fill="#272e35" d="M34.999.5c1.282 0 2.511.509 3.418 1.416s1.416 2.136 1.416 3.418h0v23.333c0 1.282-.509 2.511-1.416 3.418S36.281 33.5 34.999 33.5h0-30c-1.282 0-2.511-.509-3.418-1.416S.166 29.949.166 28.667h0V5.333c0-1.282.509-2.511 1.416-3.418S3.717.5 4.999.5h0zm0 3h-30c-.486 0-.953.193-1.296.537s-.537.81-.537 1.296h0v23.333c0 .486.193.953.537 1.296s.81.537 1.296.537h30c.486 0 .953-.193 1.296-.537s.537-.81.537-1.296h0V5.333c0-.486-.193-.953-.537-1.296s-.81-.537-1.297-.537h0zm-20.667 6.834a1.5 1.5 0 0 1 2.286-1.277h0l10.833 6.667a1.5 1.5 0 0 1 0 2.555h0l-10.833 6.667a1.5 1.5 0 0 1-2.286-1.277h0zm3 2.683v7.965L23.803 17l-6.471-3.983z"></path>
</svg>