<svg width="69" height="60" viewBox="0 0 69 60" fill="none" xmlns="http://www.w3.org/2000/svg">
<g filter="url(#filter0_d)">
<path fill-rule="evenodd" clip-rule="evenodd" d="M24.5193 1.6173C27.3136 0.0972949 30.688 0.0972946 33.4824 1.6173L49.6824 10.4293C52.7008 12.0711 54.5798 15.2321 54.5798 18.6682V35.3454C54.5798 38.7815 52.7008 41.9425 49.6824 43.5844L33.4824 52.3963C30.688 53.9163 27.3136 53.9163 24.5193 52.3963L8.31926 43.5844C5.30084 41.9425 3.42188 38.7815 3.42188 35.3454V18.6682C3.42187 15.2321 5.30083 12.0711 8.31926 10.4293L24.5193 1.6173Z" fill="white"/>
<path fill-rule="evenodd" clip-rule="evenodd" d="M33.3178 20.5458V27.0224C33.3178 32.7275 30.258 35.5263 25.4239 35.5263C20.5898 35.5263 17.6328 32.7006 17.6328 27.1569V20.5458C17.6328 19.3886 18.5071 18.4736 19.6127 18.4736C20.7184 18.4736 21.5926 19.3886 21.5926 20.5458V27.0493C21.5926 30.1171 23.0583 31.7049 25.4753 31.7049C27.8924 31.7049 29.358 30.171 29.358 27.1838V20.5458C29.358 19.3886 30.2322 18.4736 31.3379 18.4736C32.4436 18.4736 33.3178 19.3886 33.3178 20.5458ZM38.3897 35.3917C37.2841 35.3917 36.4098 34.4767 36.4098 33.3196V20.5458C36.4098 19.3886 37.2841 18.4736 38.3897 18.4736C39.4954 18.4736 40.3697 19.3886 40.3697 20.5458V33.3196C40.3697 34.4767 39.4954 35.3917 38.3897 35.3917Z" fill="#2B3036"/>
<path fill-rule="evenodd" clip-rule="evenodd" d="M53.8665 24.4574C60.5357 24.4574 65.942 18.9824 65.942 12.2287C65.942 5.47497 60.5357 0 53.8665 0C47.1974 0 41.791 5.47497 41.791 12.2287C41.791 18.9824 47.1974 24.4574 53.8665 24.4574Z" fill="#2D68FF"/>
<path fill-rule="evenodd" clip-rule="evenodd" d="M53.869 17.0526C55.9085 17.0526 57.4217 16.0026 57.4217 14.2065V14.1789C57.4217 13.0322 56.869 12.4105 55.9348 11.8993C56.6454 11.4434 57.1059 10.8217 57.1059 9.78549V9.75786C57.1059 8.26575 55.8164 7.10522 53.869 7.10522C51.9217 7.10522 50.6322 8.27957 50.6322 9.75786V9.78549C50.6322 10.8217 51.0927 11.4434 51.8032 11.8993C50.8296 12.369 50.3164 13.0598 50.3164 14.2342V14.2618C50.3164 15.9473 51.8296 17.0526 53.869 17.0526ZM53.869 11.1947C53.0664 11.1947 52.5532 10.6835 52.5532 10.0065V9.97891C52.5532 9.38483 53.0401 8.85983 53.869 8.85983C54.698 8.85983 55.1848 9.39865 55.1848 9.99272V10.0204C55.1848 10.6973 54.6717 11.1947 53.869 11.1947ZM52.2769 14.096C52.2769 14.7592 52.869 15.298 53.869 15.298C54.869 15.298 55.4611 14.773 55.4611 14.096V14.0684C55.4611 13.3223 54.7901 12.8802 53.869 12.8802C52.948 12.8802 52.2769 13.3223 52.2769 14.0684V14.096Z" fill="white"/>
</g>
<defs>
<filter id="filter0_d" x="0.57977" y="0" width="68.2044" height="59.6842" filterUnits="userSpaceOnUse" color-interpolation-filters="sRGB">
<feFlood flood-opacity="0" result="BackgroundImageFix"/>
<feColorMatrix in="SourceAlpha" type="matrix" values="0 0 0 0 0 0 0 0 0 0 0 0 0 0 0 0 0 0 127 0"/>
<feOffset dy="2.84211"/>
<feGaussianBlur stdDeviation="1.42105"/>
<feColorMatrix type="matrix" values="0 0 0 0 0 0 0 0 0 0 0 0 0 0 0 0 0 0 0.1 0"/>
<feBlend mode="normal" in2="BackgroundImageFix" result="effect1_dropShadow"/>
<feBlend mode="normal" in="SourceGraphic" in2="effect1_dropShadow" result="shape"/>
</filter>
</defs>
</svg>
